# Blender v2.78 (sub 0) OBJ File: 'vis.blend'
# www.blender.org
mtllib vis2.mtl
o Cylinder_Cylinder.001
v -0.002191 0.010805 -0.537880
v 0.005110 0.205367 -0.342012
v 0.099229 0.178061 -0.342012
v 0.173595 0.109847 -0.342012
v 0.206009 -0.026169 -0.342012
v 0.127166 -0.164174 -0.342012
v -0.005110 -0.205367 -0.342012
v -0.136211 -0.156751 -0.342012
v -0.207155 -0.014524 -0.342012
v -0.167917 0.118344 -0.342012
v -0.092923 0.181431 -0.342012
v 0.006237 0.339726 -0.052879
v 0.121875 0.213603 -0.148912
v 0.213243 0.129793 -0.148912
v 0.253067 -0.037320 -0.148912
v 0.156199 -0.206878 -0.148912
v -0.006319 -0.257488 -0.148912
v -0.167394 -0.197758 -0.148912
v -0.254558 -0.023013 -0.148912
v -0.206349 0.140233 -0.148912
v -0.114210 0.217744 -0.148912
v 0.005792 0.323225 0.118914
v 0.112932 0.199568 0.022882
v 0.197587 0.121916 0.022882
v 0.234485 -0.032917 0.022882
v 0.144734 -0.190015 0.022882
v -0.005842 -0.236906 0.022882
v -0.155080 -0.181565 0.022882
v -0.235840 -0.019661 0.022882
v -0.191173 0.131590 0.022882
v -0.105804 0.203405 0.022882
v 0.002949 0.125281 0.367504
v 0.055825 0.109941 0.367504
v 0.097604 0.071618 0.367504
v 0.115814 -0.004795 0.367504
v 0.071520 -0.082327 0.367504
v -0.002792 -0.105469 0.367504
v -0.076445 -0.078157 0.367504
v -0.116302 0.001747 0.367504
v -0.094257 0.076392 0.367504
v -0.052126 0.111835 0.367504
v 0.001660 0.077505 0.582862
v 0.029932 0.069303 0.582862
v 0.052271 0.048812 0.582862
v 0.062007 0.007955 0.582862
v 0.038324 -0.033500 0.582862
v -0.001410 -0.045873 0.582862
v -0.040790 -0.031270 0.582862
v -0.062101 0.011453 0.582862
v -0.050314 0.051365 0.582862
v -0.027788 0.070315 0.582862
v 0.001105 0.181494 0.703944
v 0.018787 0.157755 0.703944
v 0.032757 0.098451 0.703944
v 0.038847 -0.019798 0.703944
v 0.024035 -0.139776 0.703944
v -0.000814 -0.175588 0.703944
v -0.025443 -0.133323 0.703944
v -0.038771 -0.009674 0.703944
v -0.031400 0.105839 0.703944
v -0.017311 0.160685 0.703944
v 0.000179 0.022607 0.724439
v 0.355230 -0.210184 -0.077453
v 0.308897 -0.242646 -0.077453
v -0.333119 -0.240570 -0.085221
v -0.352848 -0.201018 -0.085221
v 0.346342 -0.209341 0.004718
v 0.303413 -0.239418 0.004718
v -0.330332 -0.236905 0.012487
v -0.348612 -0.200259 0.012487
vn 0.4830 0.5265 -0.6997
vn 0.6912 0.1647 -0.7036
vn 0.6089 -0.3479 -0.7129
vn -0.2410 -0.6499 -0.7208
vn 0.2051 -0.6587 -0.7239
vn -0.6346 -0.3166 -0.7050
vn -0.6894 0.2036 -0.6951
vn -0.4633 0.5507 -0.6943
vn 0.2006 0.6913 -0.6942
vn -0.1714 0.7022 -0.6911
vn -0.6294 0.7482 -0.2101
vn -0.8703 -0.4341 -0.2327
vn 0.6609 0.7205 -0.2101
vn 0.2881 -0.9250 -0.2479
vn -0.9361 0.2764 -0.2176
vn 0.9493 0.2262 -0.2183
vn 0.8443 -0.4823 -0.2336
vn -0.4261 0.8471 -0.3176
vn -0.3369 -0.9085 -0.2473
vn 0.4622 0.8290 -0.3149
vn -0.9544 0.2818 0.0985
vn 0.9680 0.2307 0.0988
vn -0.3182 -0.1587 -0.9346
vn -0.7490 0.6581 0.0764
vn -0.3455 -0.9316 0.1126
vn 0.7728 0.6300 0.0771
vn -0.6408 0.7618 0.0949
vn -0.8557 0.5133 0.0651
vn 0.6729 0.7336 0.0950
vn 0.2954 -0.9487 0.1128
vn 0.9275 0.2210 0.3014
vn 0.8222 -0.4697 0.3215
vn -0.7003 0.6160 0.3607
vn -0.3271 -0.8820 0.3393
vn 0.7255 0.5877 0.3582
vn -0.6160 0.7322 0.2905
vn -0.8477 -0.4228 0.3203
vn 0.6468 0.7051 0.2906
vn 0.2796 -0.8979 0.3400
vn -0.9147 0.2701 0.3005
vn -0.2319 0.9499 0.2094
vn -0.3364 -0.9071 0.2532
vn 0.2724 0.9390 0.2099
vn -0.6287 0.7473 0.2151
vn -0.8691 -0.4335 0.2383
vn 0.6601 0.7197 0.2152
vn 0.2876 -0.9235 0.2537
vn -0.9349 0.2761 0.2229
vn 0.9481 0.2260 0.2235
vn 0.8431 -0.4817 0.2392
vn -0.5513 -0.6206 -0.5576
vn 0.4840 0.6963 -0.5300
vn -0.8849 0.4391 -0.1552
vn -0.9777 -0.2035 0.0526
vn 0.9036 0.4112 -0.1201
vn 0.4790 -0.6420 -0.5986
vn -0.9806 0.1209 0.1544
vn 0.9816 0.0976 0.1642
vn 0.9725 -0.2319 0.0220
vn -0.4191 0.7164 -0.5578
vn 0.1680 0.1252 0.9778
vn -0.3594 0.0923 0.9286
vn -0.4345 -0.0468 0.8995
vn 0.3749 0.0883 0.9228
vn 0.1477 -0.1025 0.9837
vn -0.4854 0.0310 0.8737
vn 0.4896 0.0252 0.8716
vn 0.4224 -0.0522 0.9049
vn -0.1440 0.1274 0.9813
vn -0.1724 -0.1005 0.9799
vn 0.5724 -0.8170 0.0703
vn -0.8941 -0.4460 0.0422
vn -0.0512 -0.0255 0.9984
vn 0.8444 0.5297 0.0804
vn 0.3254 -0.2307 -0.9170
vn 0.0839 -0.0595 0.9947
vn 0.2841 -0.9572 0.0546
vn -0.2726 -0.9604 0.0578
usemtl IkeaPlastic
s off
f 1//1 3//1 4//1
f 1//2 4//2 5//2
f 1//3 5//3 6//3
f 1//4 7//4 8//4
f 6//5 7//5 1//5
f 1//6 8//6 9//6
f 9//7 10//7 1//7
f 10//8 11//8 1//8
f 1//9 2//9 3//9
f 1//10 11//10 2//10
f 11//11 10//11 20//11 21//11
f 9//12 8//12 18//12 19//12
f 4//13 3//13 13//13 14//13
f 7//14 6//14 16//14 17//14
f 10//15 9//15 19//15 20//15
f 5//16 4//16 14//16 15//16
f 6//17 5//17 15//17 16//17
f 2//18 11//18 21//18 12//18
f 8//19 7//19 17//19 18//19
f 3//20 2//20 12//20 13//20
f 20//21 19//21 29//21 30//21
f 15//22 14//22 24//22 25//22
f 19//23 18//23 65//23 66//23
f 12//24 21//24 31//24 22//24
f 18//25 17//25 27//25 28//25
f 13//26 12//26 22//26 23//26
f 21//27 20//27 30//27 31//27
f 29//28 19//28 66//28 70//28
f 14//29 13//29 23//29 24//29
f 17//30 16//30 26//30 27//30
f 25//31 24//31 34//31 35//31
f 26//32 25//32 35//32 36//32
f 22//33 31//33 41//33 32//33
f 28//34 27//34 37//34 38//34
f 23//35 22//35 32//35 33//35
f 31//36 30//36 40//36 41//36
f 29//37 28//37 38//37 39//37
f 24//38 23//38 33//38 34//38
f 27//39 26//39 36//39 37//39
f 30//40 29//40 39//40 40//40
f 32//41 41//41 51//41 42//41
f 38//42 37//42 47//42 48//42
f 33//43 32//43 42//43 43//43
f 41//44 40//44 50//44 51//44
f 39//45 38//45 48//45 49//45
f 34//46 33//46 43//46 44//46
f 37//47 36//47 46//47 47//47
f 40//48 39//48 49//48 50//48
f 35//49 34//49 44//49 45//49
f 36//50 35//50 45//50 46//50
f 48//51 47//51 57//51 58//51
f 43//52 42//52 52//52 53//52
f 51//53 50//53 60//53 61//53
f 49//54 48//54 58//54 59//54
f 44//55 43//55 53//55 54//55
f 47//56 46//56 56//56 57//56
f 50//57 49//57 59//57 60//57
f 45//58 44//58 54//58 55//58
f 46//59 45//59 55//59 56//59
f 42//60 51//60 61//60 52//60
f 53//61 52//61 62//61
f 61//62 60//62 62//62
f 59//63 58//63 62//63
f 54//64 53//64 62//64
f 57//65 56//65 62//65
f 60//66 59//66 62//66
f 55//67 54//67 62//67
f 56//68 55//68 62//68
f 52//69 61//69 62//69
f 58//70 57//70 62//70
f 64//71 63//71 67//71 68//71
f 66//72 65//72 69//72 70//72
f 28//73 29//73 70//73 69//73
f 15//74 25//74 67//74 63//74
f 16//75 15//75 63//75 64//75
f 25//76 26//76 68//76 67//76
f 18//77 28//77 69//77 65//77
f 26//78 16//78 64//78 68//78
